<svg width="158" height="96" viewBox="0 0 158 96" fill="none" xmlns="http://www.w3.org/2000/svg">
<path d="M92.2514 58.6882H64.5255V60.4519H92.2514V58.6882Z" fill="white"/>
<path d="M67.4744 48.7979H65.1436V57.3215H67.4744V48.7979Z" fill="white"/>
<path d="M79.8544 54.3326C79.8544 56.5841 78.0794 57.5425 75.2495 57.5425C74.2344 57.5425 72.7032 57.3496 71.6994 56.5103C71.0983 55.9943 70.8658 55.3024 70.8374 54.4517V48.7977H73.2079V54.327C73.2079 55.5122 74.1096 56.0283 75.2098 56.0283C76.8147 56.0283 77.4669 55.4442 77.4669 54.4064V48.792H79.8544V54.3326Z" fill="white"/>
<path d="M85.639 53.5672H88.6049C89.4499 53.5672 90.2836 53.8565 90.2836 54.5937C90.2836 55.467 89.6371 55.8357 88.4915 55.8357H85.639V53.5672ZM83.3875 57.3215H88.1286C90.4197 57.3215 91.0151 57.0266 91.6617 56.5502C92.2514 56.1135 92.6144 55.4727 92.6144 54.7922C92.6144 53.9472 92.2628 53.1192 90.8961 52.7279C91.3554 52.5578 92.2628 52.2118 92.2628 50.9869C92.2628 50.1079 91.5652 48.7979 88.8204 48.7979H83.3875V57.3215ZM85.639 50.2667H88.3157C89.3705 50.2667 90.0227 50.4822 90.0227 51.1797C90.0227 51.8489 89.2911 52.1268 88.3724 52.1268H85.639V50.2667Z" fill="white"/>
<path d="M76.5879 36.0947L63.3799 27.8943V35.9812L76.5879 44.1873V36.0947Z" fill="white"/>
<path d="M92.1152 23.2212L78.913 33.1456V41.4934L92.1152 31.8696V23.2212Z" fill="white"/>
<path d="M72.2098 3.76938C70.9168 2.4707 69.896 2 69.896 2V2.48204C69.896 2.48204 71.9546 4.25709 71.9546 7.4896C71.9546 12.8771 67.7864 14.9301 67.7864 21.7353C67.7864 31.4386 77.501 34.0132 77.501 34.0132V17.2495C77.5747 10.2287 74.3592 5.9414 72.2098 3.76938ZM74.3025 30.7637C74.3025 30.7637 69.2042 29.3062 69.2042 22.0302C69.2042 13.569 73.3327 14.051 72.9131 8.44234C72.9131 8.44234 74.9036 9.8828 74.9036 12.5425C74.9036 15.1909 72.6579 16.0529 72.6579 22.9773C72.6579 29.9074 74.3025 30.7637 74.3025 30.7637Z" fill="white"/>
<path d="M0 76.6767V66.3667H1.94518V76.6767H0Z" fill="white"/>
<path d="M3.41968 70.0586C3.41968 69.9395 3.43102 69.8034 3.4537 69.6446C3.47639 69.4858 3.55011 69.344 3.6692 69.2193C3.83367 69.0321 4.03783 68.9244 4.26467 68.9017C4.49718 68.879 4.69567 68.8677 4.86013 68.8677H7.61628C8.03026 68.8677 8.4159 68.9017 8.77885 68.9698C9.14179 69.0378 9.48206 69.2136 9.79397 69.5028C9.99813 69.69 10.1796 69.9395 10.3327 70.2514C10.4858 70.5633 10.5596 70.9943 10.5596 71.5331V76.6767H8.83556V72.0491C8.83556 71.7939 8.81854 71.5444 8.77885 71.3062C8.73915 71.0681 8.64841 70.8526 8.51231 70.6654C8.38187 70.5009 8.22308 70.3762 8.03593 70.3025C7.84312 70.2287 7.59359 70.189 7.27601 70.189H5.52365C5.47261 70.189 5.42724 70.189 5.3762 70.1947C5.32516 70.2004 5.27979 70.2287 5.22875 70.2741C5.17771 70.3251 5.15503 70.3762 5.14936 70.4386C5.14369 70.4953 5.14369 70.552 5.14369 70.603V76.6711H3.41968V70.0586Z" fill="white"/>
<path d="M18.7997 66.3611V75.3044C18.7997 75.4745 18.777 75.6503 18.743 75.8375C18.7033 76.0246 18.6466 76.172 18.5672 76.2798C18.4311 76.4669 18.2609 76.5804 18.0568 76.6201C17.8526 76.6598 17.6655 76.6768 17.4897 76.6768H14.4103C14.2118 76.6768 14.002 76.6598 13.7694 76.6257C13.5369 76.5917 13.3101 76.518 13.0832 76.4102C12.8564 76.3025 12.6409 76.1494 12.4424 75.9452C12.2382 75.7467 12.0681 75.4745 11.9207 75.1286C11.8243 74.9017 11.7335 74.5955 11.6541 74.2099C11.5747 73.8242 11.535 73.3025 11.535 72.656C11.535 72.242 11.5691 71.7996 11.6371 71.3233C11.7052 70.8469 11.8753 70.4159 12.1362 70.0359C12.3233 69.7637 12.5388 69.5426 12.777 69.3894C13.0152 69.2307 13.259 69.1172 13.4972 69.0435C13.7354 68.9698 13.9679 68.9244 14.1891 68.9017C14.4103 68.8847 14.5974 68.8734 14.7562 68.8734H17.07V66.3668H18.7997V66.3611ZM15.1021 70.1947C14.8753 70.1947 14.6258 70.2344 14.3479 70.3138C14.07 70.3932 13.8432 70.586 13.656 70.8866C13.5653 71.0227 13.4916 71.2325 13.4178 71.5048C13.3498 71.777 13.3158 72.1796 13.3158 72.7127C13.3158 73.3195 13.3441 73.7505 13.3951 73.9944C13.4462 74.2382 13.4916 74.397 13.5199 74.4651C13.6106 74.6635 13.7184 74.8167 13.8432 74.9358C13.9736 75.0548 14.104 75.1399 14.2458 75.2023C14.3876 75.259 14.535 75.2987 14.6825 75.3214C14.8299 75.3384 14.966 75.3497 15.0965 75.3497H16.4802C16.5199 75.3497 16.5936 75.3441 16.6957 75.3327C16.7978 75.3214 16.8772 75.2874 16.9396 75.2307C17.0076 75.1739 17.0473 75.0832 17.0587 74.9584C17.07 74.8337 17.0757 74.7429 17.0757 74.6862V70.1947H15.1021Z" fill="white"/>
<path d="M22.724 76.6768C22.5255 76.6768 22.3213 76.6711 22.1058 76.6541C21.8903 76.6371 21.6805 76.5974 21.4707 76.5293C21.2665 76.4613 21.0624 76.3592 20.8639 76.2288C20.6654 76.0983 20.4896 75.9169 20.3308 75.69C20.0756 75.3157 19.9168 74.8791 19.8601 74.38C19.8034 73.8809 19.7693 73.3705 19.7693 72.8488C19.7693 72.4859 19.775 72.1456 19.792 71.8223C19.809 71.5048 19.8487 71.2099 19.9111 70.9377C19.9735 70.6654 20.0699 70.4216 20.189 70.1947C20.3138 69.9679 20.4839 69.7637 20.6994 69.5766C20.9149 69.3895 21.1531 69.2477 21.414 69.1513C21.6748 69.0549 21.9357 68.9811 22.2022 68.9358C22.4688 68.8904 22.724 68.862 22.9678 68.8564C23.2117 68.8507 23.4272 68.8394 23.6143 68.8394C24.0737 68.8394 24.5274 68.8677 24.9754 68.9188C25.4234 68.9755 25.8261 69.1116 26.189 69.3384C26.4159 69.4859 26.5973 69.6503 26.7391 69.8375C26.8809 70.0246 26.9943 70.2288 27.0794 70.4499C27.1644 70.6711 27.2211 70.9036 27.2495 71.1418C27.2779 71.38 27.2949 71.6239 27.2949 71.8734C27.2949 72.0719 27.2779 72.276 27.2382 72.4859C27.1985 72.6957 27.0964 72.8885 26.9262 73.053C26.8072 73.1721 26.6767 73.2515 26.5349 73.2912C26.3932 73.3308 26.24 73.3479 26.0869 73.3479H21.5501C21.5501 73.5123 21.5614 73.7051 21.5784 73.9206C21.5954 74.1361 21.6238 74.3063 21.6521 74.4197C21.7089 74.6239 21.7939 74.7883 21.9017 74.9131C22.0094 75.0378 22.1399 75.1286 22.2873 75.191C22.4348 75.2533 22.5879 75.2987 22.7523 75.3157C22.9168 75.3327 23.0756 75.3441 23.2287 75.3441H27.0453V76.6711H22.724V76.6768ZM25.1399 72.0208C25.3043 72.0208 25.4121 71.9698 25.4574 71.8734C25.5028 71.777 25.5255 71.6692 25.5255 71.5615C25.5255 71.3176 25.4745 71.1021 25.3724 70.9263C25.2703 70.7505 25.1512 70.6144 25.0264 70.5123C24.8109 70.3479 24.5727 70.2458 24.3119 70.2118C24.051 70.1777 23.7958 70.1607 23.552 70.1607C23.4329 70.1607 23.3081 70.1664 23.1663 70.1664C23.0302 70.1721 22.8884 70.1891 22.741 70.2174C22.5935 70.2458 22.4461 70.2968 22.3043 70.3705C22.1625 70.4443 22.0321 70.5463 21.913 70.6711C21.7372 70.8696 21.6351 71.0738 21.6124 71.2949C21.5898 71.5161 21.5728 71.7543 21.5614 72.0095H25.1399V72.0208Z" fill="white"/>
<path d="M29.9999 79.1777H28.2759V70.07C28.2759 69.8148 28.327 69.6106 28.4234 69.4575C28.5198 69.3044 28.6219 69.191 28.7183 69.1116C28.8657 69.0038 29.0302 68.9358 29.206 68.9074C29.3818 68.8791 29.5463 68.8621 29.6937 68.8621H32.4215C32.5519 68.8621 32.7051 68.8677 32.8865 68.8847C33.068 68.9018 33.2665 68.9358 33.4763 68.9982C33.6861 69.0549 33.9016 69.1456 34.1171 69.2534C34.3327 69.3668 34.5368 69.5199 34.724 69.7184C34.9224 69.9226 35.0756 70.1494 35.189 70.3989C35.3024 70.6428 35.3875 70.8923 35.4385 71.1532C35.4896 71.4084 35.5236 71.6636 35.5349 71.9131C35.5463 72.1626 35.5519 72.3951 35.5519 72.6106C35.5519 72.8658 35.5463 73.1267 35.5349 73.3932C35.5236 73.6598 35.4952 73.9207 35.4555 74.1759C35.4102 74.4311 35.3478 74.6749 35.2627 74.9131C35.1776 75.1513 35.0699 75.3668 34.9338 75.5596C34.7466 75.8261 34.5368 76.036 34.31 76.1834C34.0775 76.3365 33.8393 76.45 33.5897 76.5237C33.3402 76.5974 33.0964 76.6428 32.8525 76.6541C32.6143 76.6711 32.3931 76.6768 32.1947 76.6768H29.9999V79.1777ZM31.9621 75.3498C32.3931 75.3498 32.7221 75.2704 32.9489 75.1059C33.1758 74.9415 33.3345 74.7827 33.4366 74.6295C33.516 74.5105 33.5897 74.3176 33.6578 74.0398C33.7258 73.7675 33.7599 73.3365 33.7599 72.7581C33.7599 72.225 33.7372 71.845 33.6918 71.6012C33.6465 71.363 33.6011 71.1872 33.55 71.0794C33.4423 70.8243 33.2608 70.6144 33.0056 70.4443C32.7504 70.2798 32.4328 70.1948 32.0472 70.1948H30.3516C30.3119 70.1948 30.2722 70.2061 30.2268 70.2345C30.1814 70.2571 30.1474 70.2798 30.119 70.3025C30.0396 70.3819 29.9999 70.467 29.9999 70.5691V75.3554H31.9621V75.3498Z" fill="white"/>
<path d="M39.2552 76.6768C39.0567 76.6768 38.8526 76.6711 38.6371 76.6541C38.4216 76.6371 38.2118 76.5974 38.0019 76.5293C37.7978 76.4613 37.5936 76.3592 37.3951 76.2288C37.1966 76.0983 37.0208 75.9169 36.862 75.69C36.6068 75.3157 36.448 74.8791 36.3913 74.38C36.3346 73.8809 36.3006 73.3705 36.3006 72.8488C36.3006 72.4859 36.3063 72.1456 36.3233 71.8223C36.3403 71.5048 36.38 71.2099 36.4424 70.9377C36.5048 70.6654 36.6012 70.4216 36.7203 70.1947C36.845 69.9679 37.0152 69.7637 37.2307 69.5766C37.4462 69.3895 37.6843 69.2477 37.9452 69.1513C38.2061 69.0549 38.467 68.9811 38.7335 68.9358C39 68.8904 39.2552 68.862 39.4991 68.8564C39.7429 68.845 39.9584 68.8394 40.1456 68.8394C40.6049 68.8394 41.0586 68.8677 41.5066 68.9188C41.9547 68.9755 42.3573 69.1116 42.7203 69.3384C42.9471 69.4859 43.1286 69.6503 43.2704 69.8375C43.4121 70.0246 43.5256 70.2288 43.6106 70.4499C43.6957 70.6711 43.7524 70.9036 43.7807 71.1418C43.8091 71.38 43.8261 71.6239 43.8261 71.8734C43.8261 72.0719 43.8091 72.276 43.7694 72.4859C43.7297 72.6957 43.6276 72.8885 43.4575 73.053C43.3384 73.1721 43.208 73.2515 43.0662 73.2912C42.9244 73.3308 42.7713 73.3479 42.6182 73.3479H38.0813C38.0813 73.5123 38.0927 73.7051 38.1097 73.9206C38.1267 74.1361 38.155 74.3063 38.1834 74.4197C38.2401 74.6239 38.3252 74.7883 38.4329 74.9131C38.5407 75.0378 38.6711 75.1286 38.8186 75.191C38.966 75.2533 39.1191 75.2987 39.2836 75.3157C39.448 75.3327 39.6068 75.3441 39.76 75.3441H43.5766V76.6711H39.2552V76.6768ZM41.6711 72.0208C41.8356 72.0208 41.9433 71.9698 41.9887 71.8734C42.0341 71.777 42.0567 71.6692 42.0567 71.5615C42.0567 71.3176 42.0057 71.1021 41.9036 70.9263C41.8015 70.7505 41.6824 70.6144 41.5577 70.5123C41.3422 70.3479 41.104 70.2458 40.8431 70.2118C40.5823 70.1777 40.3271 70.1607 40.0832 70.1607C39.9641 70.1607 39.8393 70.1664 39.6976 70.1664C39.5615 70.1721 39.4197 70.1891 39.2722 70.2174C39.1248 70.2458 38.9773 70.2968 38.8356 70.3705C38.6938 70.4443 38.5634 70.5463 38.4443 70.6711C38.2685 70.8696 38.1664 71.0738 38.1437 71.2949C38.121 71.5161 38.104 71.7543 38.0927 72.0095H41.6711V72.0208Z" fill="white"/>
<path d="M44.8071 70.0586C44.8071 69.9395 44.8185 69.8034 44.8412 69.6446C44.8638 69.4858 44.9376 69.344 45.0567 69.2193C45.2211 69.0321 45.4253 68.9244 45.6521 68.9017C45.8846 68.879 46.0831 68.8677 46.2476 68.8677H49.0037C49.4177 68.8677 49.8033 68.9017 50.1663 68.9698C50.5292 69.0378 50.8695 69.2136 51.1814 69.5028C51.3856 69.69 51.5671 69.9395 51.7202 70.2514C51.8733 70.5633 51.947 70.9943 51.947 71.5331V76.6767H50.223V72.0491C50.223 71.7939 50.206 71.5444 50.1663 71.3062C50.1266 71.0681 50.0359 70.8526 49.8998 70.6654C49.7693 70.5009 49.6105 70.3762 49.4234 70.3025C49.2306 70.2287 48.981 70.189 48.6635 70.189H46.9111C46.8601 70.189 46.8147 70.189 46.7636 70.1947C46.7126 70.2004 46.6672 70.2287 46.6162 70.2741C46.5652 70.3251 46.5425 70.3762 46.5368 70.4386C46.5311 70.4953 46.5311 70.552 46.5311 70.603V76.6711H44.8071V70.0586Z" fill="white"/>
<path d="M60.1928 66.3611V75.3044C60.1928 75.4745 60.1701 75.6503 60.1361 75.8375C60.0964 76.0246 60.0397 76.172 59.9603 76.2798C59.8242 76.4669 59.6541 76.5804 59.4499 76.6201C59.2457 76.6598 59.0586 76.6768 58.8828 76.6768H55.8034C55.6049 76.6768 55.3951 76.6598 55.1626 76.6257C54.93 76.5917 54.7032 76.518 54.4764 76.4102C54.2495 76.3025 54.034 76.1494 53.8355 75.9452C53.6314 75.7467 53.4612 75.4745 53.3138 75.1286C53.2174 74.9017 53.1266 74.5955 53.0473 74.2099C52.9679 73.8242 52.9282 73.3025 52.9282 72.656C52.9282 72.242 52.9622 71.7996 53.0302 71.3233C53.0983 70.8469 53.2684 70.4159 53.5293 70.0359C53.7164 69.7637 53.9319 69.5426 54.1701 69.3894C54.4083 69.2307 54.6522 69.1172 54.8904 69.0435C55.1285 68.9698 55.3611 68.9244 55.5822 68.9017C55.8034 68.8847 55.9905 68.8734 56.1493 68.8734H58.4631V66.3668H60.1928V66.3611ZM56.4953 70.1947C56.2684 70.1947 56.0189 70.2344 55.741 70.3138C55.4631 70.3932 55.2363 70.586 55.0491 70.8866C54.9584 71.0227 54.8847 71.2325 54.811 71.5048C54.7429 71.777 54.7089 72.1796 54.7089 72.7127C54.7089 73.3195 54.7372 73.7505 54.7883 73.9944C54.8393 74.2382 54.8847 74.397 54.913 74.4651C55.0038 74.6635 55.1115 74.8167 55.2363 74.9358C55.3667 75.0548 55.4972 75.1399 55.6389 75.2023C55.7807 75.259 55.9282 75.2987 56.0756 75.3214C56.2231 75.3384 56.3592 75.3497 56.4896 75.3497H57.8733C57.913 75.3497 57.9868 75.3441 58.0888 75.3327C58.1909 75.3214 58.2703 75.2874 58.3327 75.2307C58.4008 75.1739 58.4404 75.0832 58.4518 74.9584C58.4631 74.8337 58.4688 74.7429 58.4688 74.6862V70.1947H56.4953Z" fill="white"/>
<path d="M64.1116 76.6768C63.9131 76.6768 63.7089 76.6711 63.4934 76.6541C63.2779 76.6371 63.0681 76.5974 62.8582 76.5293C62.6541 76.4613 62.4499 76.3592 62.2514 76.2288C62.053 76.0983 61.8772 75.9169 61.7184 75.69C61.4632 75.3157 61.3044 74.8791 61.2477 74.38C61.1909 73.8809 61.1569 73.3705 61.1569 72.8488C61.1569 72.4859 61.1626 72.1456 61.1796 71.8223C61.1966 71.5048 61.2363 71.2099 61.2987 70.9377C61.3611 70.6654 61.4575 70.4216 61.5766 70.1947C61.7013 69.9679 61.8715 69.7637 62.087 69.5766C62.3025 69.3895 62.5407 69.2477 62.8015 69.1513C63.0624 69.0549 63.3233 68.9811 63.5898 68.9358C63.8564 68.8904 64.1116 68.862 64.3554 68.8564C64.5993 68.845 64.8148 68.8394 65.0019 68.8394C65.4613 68.8394 65.915 68.8677 66.363 68.9188C66.811 68.9755 67.2136 69.1116 67.5766 69.3384C67.8034 69.4859 67.9849 69.6503 68.1267 69.8375C68.2685 70.0246 68.3819 70.2288 68.4669 70.4499C68.552 70.6711 68.6087 70.9036 68.6371 71.1418C68.6654 71.38 68.6824 71.6239 68.6824 71.8734C68.6824 72.0719 68.6654 72.276 68.6257 72.4859C68.586 72.6957 68.484 72.8885 68.3138 73.053C68.1947 73.1721 68.0643 73.2515 67.9225 73.2912C67.7807 73.3308 67.6276 73.3479 67.4745 73.3479H62.9376C62.9376 73.5123 62.949 73.7051 62.966 73.9206C62.983 74.1361 63.0114 74.3063 63.0397 74.4197C63.0964 74.6239 63.1815 74.7883 63.2892 74.9131C63.397 75.0378 63.5274 75.1286 63.6749 75.191C63.8223 75.2533 63.9754 75.2987 64.1399 75.3157C64.3044 75.3327 64.4632 75.3441 64.6163 75.3441H68.4329V76.6711H64.1116V76.6768ZM66.5274 72.0208C66.6919 72.0208 66.7996 71.9698 66.845 71.8734C66.8904 71.777 66.9131 71.6692 66.9131 71.5615C66.9131 71.3176 66.862 71.1021 66.7599 70.9263C66.6579 70.7505 66.5388 70.6144 66.414 70.5123C66.1985 70.3479 65.9603 70.2458 65.6995 70.2118C65.4386 70.1777 65.1834 70.1607 64.9395 70.1607C64.8204 70.1607 64.6957 70.1664 64.5539 70.1664C64.4178 70.1721 64.276 70.1891 64.1286 70.2174C63.9811 70.2458 63.8337 70.2968 63.6919 70.3705C63.5501 70.4443 63.4197 70.5463 63.3006 70.6711C63.1248 70.8696 63.0227 71.0738 63 71.2949C62.9773 71.5161 62.9603 71.7543 62.949 72.0095H66.5274V72.0208Z" fill="white"/>
<path d="M69.6692 70.0586C69.6692 69.9395 69.6805 69.8034 69.7032 69.6446C69.7259 69.4858 69.7996 69.344 69.9187 69.2193C70.0831 69.0321 70.2873 68.9244 70.5141 68.9017C70.7467 68.879 70.9452 68.8677 71.1096 68.8677H73.8658C74.2797 68.8677 74.6654 68.9017 75.0283 68.9698C75.3913 69.0378 75.7315 69.2136 76.0434 69.5028C76.2476 69.69 76.4291 69.9395 76.5822 70.2514C76.7353 70.5633 76.809 70.9943 76.809 71.5331V76.6767H75.085V72.0491C75.085 71.7939 75.068 71.5444 75.0283 71.3062C74.9886 71.0681 74.8979 70.8526 74.7618 70.6654C74.6314 70.5009 74.4726 70.3762 74.2854 70.3025C74.0926 70.2287 73.8431 70.189 73.5255 70.189H71.7731C71.7221 70.189 71.6767 70.189 71.6257 70.1947C71.5746 70.2004 71.5293 70.2287 71.4782 70.2741C71.4272 70.3251 71.4045 70.3762 71.3988 70.4386C71.3932 70.4953 71.3932 70.552 71.3932 70.603V76.6711H69.6692V70.0586Z" fill="white"/>
<path d="M81.3516 76.6768C80.8185 76.6768 80.3989 76.6315 80.0926 76.535C79.7807 76.4443 79.5028 76.2969 79.259 76.0984C79.0038 75.8942 78.811 75.639 78.6749 75.3328C78.5444 75.0265 78.4764 74.6239 78.4764 74.1248V70.1891H77.3989V68.8621H78.4764V66.3555H80.2004V68.8621H82.3837V70.1891H80.2004V73.3252C80.2004 73.4613 80.2004 73.6088 80.2004 73.7676C80.2004 73.915 80.2117 74.0625 80.2344 74.2099C80.2571 74.3574 80.3025 74.5048 80.3648 74.6466C80.4272 74.7884 80.5236 74.9075 80.6541 75.0095C80.8526 75.1797 81.0851 75.2761 81.3516 75.3044C81.6238 75.3328 81.8337 75.3498 81.9924 75.3498H82.4178V76.6768H81.3516Z" fill="white"/>
<path d="M91.7013 75.2249C91.8827 75.2079 92.0699 75.1796 92.2514 75.1342C92.4385 75.0888 92.62 75.0208 92.7958 74.9357C92.9716 74.845 93.1304 74.7315 93.2665 74.5841C93.3856 74.4593 93.4763 74.3119 93.5387 74.1588C93.6011 74 93.6521 73.8469 93.6861 73.6881C93.7202 73.5293 93.7372 73.3762 93.7429 73.2174C93.7485 73.0586 93.7485 72.9168 93.7485 72.792V66.3667H95.6937V73.0529C95.6937 73.4952 95.6427 73.9433 95.5406 74.4026C95.4385 74.862 95.189 75.2873 94.7977 75.69C94.5425 75.9565 94.2533 76.1606 93.9357 76.3081C93.6181 76.4555 93.2948 76.5633 92.9716 76.637C92.6483 76.7107 92.3308 76.7561 92.0302 76.7675C91.724 76.7845 91.4574 76.7901 91.2192 76.7901C90.981 76.7901 90.7145 76.7845 90.4083 76.7675C90.102 76.7504 89.7901 76.7107 89.4669 76.637C89.1436 76.5633 88.8204 76.4555 88.5028 76.3081C88.1852 76.1606 87.896 75.9565 87.6408 75.69C87.2495 75.2873 86.9999 74.8563 86.8979 74.4026C86.7958 73.9433 86.7448 73.4952 86.7448 73.0529V66.3667H88.6899V72.792C88.6899 73.0756 88.7126 73.3818 88.758 73.7051C88.8033 74.0283 88.9451 74.3232 89.1947 74.5898C89.3308 74.7372 89.4839 74.8563 89.6597 74.9414C89.8298 75.0321 90.0056 75.0945 90.1928 75.1399C90.3742 75.1852 90.5557 75.2136 90.7372 75.2306C90.9187 75.2476 91.0831 75.2533 91.2306 75.2533C91.361 75.2476 91.5198 75.2363 91.7013 75.2249Z" fill="white"/>
<path d="M97.1795 70.0586C97.1795 69.9395 97.1909 69.8034 97.2192 69.6446C97.2419 69.4858 97.3156 69.344 97.4347 69.2193C97.5992 69.0321 97.8034 68.9244 98.0302 68.9017C98.2627 68.879 98.4612 68.8677 98.6257 68.8677H101.382C101.796 68.8677 102.181 68.9017 102.544 68.9698C102.907 69.0378 103.248 69.2136 103.559 69.5028C103.764 69.69 103.945 69.9395 104.098 70.2514C104.251 70.5633 104.325 70.9943 104.325 71.5331V76.6767H102.601V72.0491C102.601 71.7939 102.584 71.5444 102.544 71.3062C102.505 71.0681 102.42 70.8526 102.278 70.6654C102.147 70.5009 101.989 70.3762 101.801 70.3025C101.609 70.2287 101.359 70.189 101.042 70.189H99.2892C99.2381 70.189 99.1928 70.189 99.1417 70.1947C99.0907 70.2004 99.0453 70.2287 98.9943 70.2741C98.9432 70.3251 98.9206 70.3762 98.9149 70.4386C98.9092 70.4953 98.9092 70.552 98.9092 70.603V76.6711H97.1852V70.0586H97.1795Z" fill="white"/>
<path d="M105.505 67.7335V66.3611H107.229V67.7335H105.505ZM105.505 68.8677H107.229V76.6768H105.505V68.8677Z" fill="white"/>
<path d="M111.442 74.6578C111.459 74.7146 111.493 74.7826 111.533 74.8563C111.573 74.9301 111.613 74.9698 111.652 74.9698C111.692 74.9698 111.732 74.9301 111.771 74.8563C111.811 74.7826 111.839 74.7146 111.862 74.6578L114.04 68.8677H115.82L112.843 76.0699C112.775 76.2344 112.696 76.3648 112.599 76.4612C112.509 76.5577 112.406 76.6257 112.304 76.6654C112.202 76.7108 112.095 76.7391 111.981 76.7448C111.868 76.7505 111.76 76.7618 111.652 76.7618C111.573 76.7618 111.482 76.7618 111.374 76.7561C111.267 76.7505 111.159 76.7278 111.045 76.6824C110.932 76.6371 110.824 76.569 110.716 76.4783C110.609 76.3875 110.518 76.2514 110.45 76.0756L107.473 68.8733H109.253L111.442 74.6578Z" fill="white"/>
<path d="M118.792 76.6768C118.594 76.6768 118.389 76.6711 118.174 76.6541C117.958 76.6371 117.749 76.5974 117.539 76.5293C117.335 76.4613 117.13 76.3592 116.938 76.2288C116.739 76.0983 116.563 75.9169 116.405 75.69C116.149 75.3157 115.991 74.8791 115.934 74.38C115.877 73.8809 115.843 73.3705 115.843 72.8488C115.843 72.4859 115.849 72.1456 115.866 71.8223C115.883 71.5048 115.917 71.2099 115.985 70.9377C116.047 70.6654 116.144 70.4216 116.263 70.1947C116.387 69.9679 116.558 69.7637 116.773 69.5766C116.989 69.3895 117.227 69.2477 117.488 69.1513C117.749 69.0549 118.009 68.9811 118.276 68.9358C118.543 68.8904 118.798 68.862 119.042 68.8564C119.285 68.845 119.501 68.8394 119.688 68.8394C120.147 68.8394 120.607 68.8677 121.049 68.9188C121.497 68.9755 121.9 69.1116 122.263 69.3384C122.49 69.4859 122.671 69.6503 122.813 69.8375C122.955 70.0246 123.068 70.2288 123.153 70.4499C123.238 70.6711 123.295 70.9036 123.323 71.1418C123.352 71.38 123.369 71.6239 123.369 71.8734C123.369 72.0719 123.352 72.276 123.312 72.4859C123.272 72.6957 123.17 72.8885 123 73.053C122.881 73.1721 122.75 73.2515 122.609 73.2912C122.467 73.3308 122.314 73.3479 122.161 73.3479H117.624C117.624 73.5123 117.635 73.7051 117.652 73.9206C117.669 74.1361 117.698 74.3063 117.726 74.4197C117.783 74.6239 117.868 74.7883 117.975 74.9131C118.083 75.0378 118.214 75.1286 118.361 75.191C118.508 75.2533 118.662 75.2987 118.826 75.3157C118.991 75.3327 119.149 75.3441 119.302 75.3441H123.119V76.6711H118.792V76.6768ZM121.208 72.0208C121.372 72.0208 121.48 71.9698 121.525 71.8734C121.571 71.777 121.594 71.6692 121.594 71.5615C121.594 71.3176 121.543 71.1021 121.44 70.9263C121.338 70.7505 121.219 70.6144 121.094 70.5123C120.879 70.3479 120.641 70.2458 120.38 70.2118C120.119 70.1777 119.864 70.1607 119.62 70.1607C119.501 70.1607 119.376 70.1664 119.234 70.1664C119.098 70.1721 118.956 70.1891 118.809 70.2174C118.662 70.2458 118.514 70.2968 118.372 70.3705C118.231 70.4443 118.1 70.5463 117.981 70.6711C117.805 70.8696 117.703 71.0738 117.681 71.2949C117.658 71.5161 117.641 71.7543 117.629 72.0095H121.208V72.0208Z" fill="white"/>
<path d="M124.35 71.811C124.35 71.38 124.401 70.966 124.503 70.569C124.605 70.172 124.826 69.8318 125.161 69.5425C125.336 69.3837 125.529 69.259 125.745 69.1682C125.955 69.0775 126.164 69.0038 126.38 68.9641C126.59 68.9187 126.794 68.8904 126.992 68.8847C127.191 68.8733 127.361 68.8677 127.509 68.8677H128.671V70.1947H127.951C127.724 70.1947 127.474 70.2231 127.197 70.2854C126.919 70.3422 126.681 70.4953 126.476 70.7448C126.306 70.9433 126.204 71.1701 126.153 71.4367C126.102 71.7032 126.079 71.9811 126.079 72.276V76.6824H124.355V71.811H124.35Z" fill="white"/>
<path d="M129.153 75.3498H133.543C133.633 75.3498 133.73 75.3385 133.837 75.3102C133.945 75.2875 134.036 75.2251 134.115 75.1287C134.195 75.0493 134.24 74.9642 134.246 74.8735C134.257 74.7827 134.263 74.7034 134.263 74.6466C134.263 74.5389 134.251 74.4368 134.229 74.3347C134.206 74.2326 134.144 74.1419 134.047 74.0568C134.019 74.0285 133.979 74.0001 133.928 73.9774C133.877 73.9548 133.803 73.9207 133.701 73.881C133.599 73.8413 133.463 73.796 133.293 73.7506C133.129 73.6996 132.907 73.6372 132.629 73.5578L131.127 73.1438C130.713 73.036 130.367 72.9056 130.078 72.7525C129.794 72.5994 129.573 72.4179 129.414 72.2024C129.255 71.9869 129.159 71.7601 129.113 71.5275C129.068 71.2894 129.045 71.0739 129.045 70.881C129.045 70.6826 129.068 70.4671 129.113 70.2345C129.159 69.9964 129.261 69.7752 129.414 69.554C129.533 69.3952 129.664 69.2705 129.811 69.1797C129.958 69.089 130.112 69.0153 130.276 68.9756C130.44 68.9302 130.605 68.9018 130.775 68.8962C130.945 68.8905 131.115 68.8792 131.285 68.8792H135.692V70.2062H131.552C131.456 70.2062 131.354 70.2119 131.251 70.2232C131.149 70.2345 131.047 70.2799 130.951 70.3536C130.843 70.433 130.781 70.5181 130.758 70.6088C130.741 70.6996 130.73 70.8016 130.73 70.9094C130.73 71.0171 130.741 71.1192 130.764 71.2213C130.786 71.3177 130.86 71.4198 130.979 71.5162C131.036 71.5672 131.11 71.6069 131.2 71.6466C131.291 71.6863 131.382 71.7204 131.473 71.7601C131.563 71.7941 131.654 71.8281 131.745 71.8565C131.836 71.8848 131.904 71.9075 131.949 71.9132L133.628 72.3839C134.098 72.52 134.49 72.6504 134.807 72.7752C135.119 72.8999 135.374 73.0644 135.573 73.2686C135.771 73.4841 135.896 73.7223 135.958 73.9831C136.015 74.244 136.049 74.4822 136.049 74.6977C136.049 75.1684 135.975 75.537 135.834 75.7979C135.692 76.0587 135.544 76.2459 135.397 76.365C135.198 76.5124 134.989 76.6032 134.762 76.6372C134.535 76.6712 134.331 76.6882 134.144 76.6882H129.147V75.3498H129.153Z" fill="white"/>
<path d="M137.019 67.7335V66.3611H138.743V67.7335H137.019ZM137.019 68.8677H138.743V76.6768H137.019V68.8677Z" fill="white"/>
<path d="M143.285 76.6768C142.752 76.6768 142.333 76.6315 142.026 76.535C141.72 76.4386 141.437 76.2969 141.193 76.0984C140.938 75.8942 140.745 75.639 140.609 75.3328C140.478 75.0265 140.41 74.6239 140.41 74.1248V70.1891H139.333V68.8621H140.41V66.3555H142.134V68.8621H144.318V70.1891H142.134V73.3252C142.134 73.4613 142.134 73.6088 142.134 73.7676C142.134 73.915 142.146 74.0625 142.174 74.2099C142.197 74.3574 142.242 74.5048 142.304 74.6466C142.367 74.7884 142.463 74.9075 142.594 75.0095C142.792 75.1797 143.025 75.2761 143.291 75.3044C143.563 75.3328 143.773 75.3498 143.932 75.3498H144.357V76.6768H143.285Z" fill="white"/>
<path d="M148.486 79.1947H146.733L147.93 76.6484L144.454 68.8677H146.234L148.741 74.862L151.395 68.896H153.147L148.486 79.1947Z" fill="white"/>
<path d="M152.79 77.6015L154.588 74.6128L156 75.4521L154.1 78.3841L152.79 77.6015Z" fill="white"/>
<path d="M45.7429 81.0945C45.879 81.0945 46.0321 81.1002 46.1909 81.1115C46.3554 81.1228 46.5198 81.1512 46.6843 81.1909C46.8488 81.2363 47.0132 81.2986 47.172 81.3837C47.3308 81.4688 47.4783 81.5765 47.6144 81.7126C47.7618 81.8601 47.8752 82.0245 47.9603 82.2117C48.0454 82.3988 48.1077 82.5916 48.1531 82.7845C48.1985 82.9829 48.2268 83.1758 48.2438 83.3743C48.2609 83.5727 48.2665 83.7542 48.2665 83.9187C48.2665 84.2022 48.2439 84.4858 48.1928 84.7637C48.1418 85.0416 48.0057 85.3194 47.7788 85.5973C47.6314 85.7731 47.4839 85.9036 47.3308 85.9773C47.1777 86.0567 47.0019 86.1077 46.8091 86.1247V86.1814C47.0529 86.1985 47.2741 86.2608 47.4669 86.3629C47.6597 86.465 47.8185 86.5841 47.9433 86.7259C48.0624 86.862 48.1531 87.0094 48.2212 87.1625C48.2892 87.3157 48.3403 87.4744 48.3686 87.6332C48.397 87.7977 48.414 87.9565 48.4197 88.1096C48.4253 88.2684 48.4253 88.4215 48.4253 88.569C48.4253 88.9149 48.4026 89.2779 48.3516 89.6578C48.3006 90.0434 48.1304 90.4007 47.8355 90.7353C47.6881 90.9054 47.535 91.0302 47.3762 91.1209C47.2174 91.2117 47.0643 91.2741 46.9055 91.3194C46.7467 91.3648 46.5879 91.3875 46.4291 91.3932C46.2646 91.3988 46.1059 91.3988 45.9527 91.3988H41.0189C40.7637 91.3988 40.5198 91.3875 40.2817 91.3705C40.0435 91.3535 39.8223 91.223 39.6181 90.9905C39.5671 90.9338 39.499 90.8147 39.4026 90.6446C39.3119 90.4744 39.2609 90.2419 39.2609 89.947V82.5803C39.2609 82.3818 39.2892 82.1947 39.3403 82.0075C39.3913 81.8204 39.4764 81.6616 39.5841 81.5198C39.7429 81.3327 39.9187 81.2136 40.1229 81.1682C40.3214 81.1172 40.5085 81.0945 40.673 81.0945H45.7429ZM41.206 85.4272H44.9773C45.1758 85.4272 45.3629 85.4102 45.5501 85.3818C45.7372 85.3535 45.896 85.2457 46.0378 85.0586C46.0775 85.0075 46.1229 84.9111 46.1796 84.7637C46.2363 84.6162 46.259 84.3667 46.259 84.0094C46.259 83.8733 46.242 83.6918 46.2136 83.4707C46.1852 83.2495 46.0832 83.0623 45.9187 82.9036C45.7826 82.7675 45.6295 82.6881 45.4594 82.6654C45.2892 82.6484 45.1248 82.637 44.9603 82.637H41.7788C41.6994 82.637 41.62 82.637 41.5406 82.6427C41.4612 82.6484 41.3932 82.6824 41.3365 82.7561C41.2798 82.8242 41.2401 82.9036 41.2231 82.9943C41.206 83.085 41.2004 83.1588 41.2004 83.2155V85.4272H41.206ZM41.206 89.0964C41.206 89.2665 41.2174 89.3913 41.2344 89.4877C41.2514 89.5784 41.2854 89.6521 41.3251 89.7032C41.4045 89.7939 41.5066 89.8393 41.6427 89.8506C41.7731 89.862 41.8809 89.8676 41.9603 89.8676H45.0227C45.1815 89.8676 45.3686 89.8506 45.5955 89.8166C45.8223 89.7826 46.0094 89.6748 46.1569 89.499C46.2646 89.3629 46.3384 89.1928 46.3724 89C46.4064 88.8015 46.4234 88.62 46.4234 88.4555C46.4234 88.3081 46.4121 88.1323 46.3894 87.9225C46.3667 87.7183 46.3043 87.5425 46.2079 87.4064C46.1512 87.327 46.0378 87.2363 45.879 87.1342C45.7202 87.0321 45.4764 86.9811 45.1645 86.9811H41.2174V89.0964H41.206Z" fill="white"/>
<path d="M54.4083 83.6011C54.7429 83.6011 55.0492 83.6521 55.3384 83.7655C55.6219 83.8733 55.8544 84.0207 56.0303 84.2079C56.1947 84.378 56.3365 84.6105 56.4442 84.9224C56.552 85.2343 56.6087 85.6086 56.6087 86.051V90.1001C56.6087 90.2362 56.5917 90.4064 56.5577 90.5992C56.5236 90.7977 56.4386 90.9621 56.3025 91.0982C56.1664 91.2343 55.9962 91.3194 55.8034 91.3591C55.6049 91.3931 55.4178 91.4102 55.2306 91.4102H51.4934C51.2779 91.4102 51.0454 91.3931 50.7958 91.3648C50.5463 91.3364 50.3081 91.223 50.0813 91.0245C49.9225 90.8884 49.7977 90.7296 49.707 90.5481C49.6163 90.3667 49.5425 90.1795 49.5028 89.981C49.4575 89.7825 49.4291 89.5954 49.4234 89.4083C49.4121 89.2211 49.4064 89.0567 49.4064 88.9092C49.4064 88.5633 49.4405 88.2287 49.5199 87.8941C49.5936 87.5595 49.7751 87.2646 50.0699 87.0094C50.3138 86.7939 50.5633 86.6635 50.8129 86.6181C51.0624 86.5727 51.2892 86.55 51.4991 86.55H54.8904V86.0056C54.8904 85.8865 54.879 85.7674 54.8563 85.637C54.8337 85.5122 54.7713 85.3875 54.6749 85.2684C54.5558 85.1209 54.4197 85.0302 54.2722 84.9905C54.1191 84.9508 53.9773 84.9338 53.8355 84.9338H49.9906V83.6067H54.4083V83.6011ZM52.0095 87.8714C51.9527 87.8714 51.8563 87.8827 51.7202 87.9054C51.5898 87.9281 51.4707 88.0075 51.3743 88.1323C51.3459 88.172 51.3062 88.2514 51.2552 88.3705C51.2042 88.4895 51.1815 88.688 51.1815 88.9773C51.1815 89.0963 51.1928 89.2438 51.2212 89.4196C51.2439 89.5954 51.3119 89.7372 51.4197 89.8449C51.4764 89.9016 51.5614 89.9584 51.6635 90.0094C51.7656 90.0604 51.8734 90.0831 51.9811 90.0831H54.3856C54.4367 90.0831 54.4991 90.0831 54.5671 90.0774C54.6408 90.0718 54.7089 90.0434 54.7656 89.998C54.8223 89.947 54.8563 89.896 54.8677 89.8449C54.879 89.7939 54.8847 89.7315 54.8847 89.6748V87.8771H52.0095V87.8714Z" fill="white"/>
<path d="M57.7827 84.792C57.7827 84.6729 57.794 84.5368 57.8167 84.378C57.8394 84.2192 57.9131 84.0774 58.0322 83.9527C58.1966 83.7655 58.4008 83.6578 58.6276 83.6351C58.8602 83.6124 59.0586 83.6011 59.2231 83.6011H61.9793C62.3932 83.6011 62.7789 83.6351 63.1418 83.7032C63.5048 83.7712 63.845 83.947 64.1569 84.2362C64.3611 84.4234 64.5426 84.6729 64.6957 84.9848C64.8488 85.2967 64.9225 85.7277 64.9225 86.2665V91.4102H63.1985V86.7825C63.1985 86.5274 63.1815 86.2778 63.1418 86.0396C63.1021 85.8015 63.0114 85.586 62.8753 85.3988C62.7448 85.2343 62.5861 85.1096 62.3989 85.0359C62.2061 84.9621 61.9566 84.9224 61.639 84.9224H59.8866C59.8356 84.9224 59.7902 84.9224 59.7392 84.9281C59.6881 84.9338 59.6428 84.9621 59.5917 85.0075C59.5407 85.0585 59.518 85.1096 59.5123 85.172C59.5067 85.2287 59.5067 85.2854 59.5067 85.3364V91.4045H57.7827V84.792Z" fill="white"/>
<path d="M66.448 92.6577H69.7315C69.9187 92.6577 70.1512 92.6407 70.4404 92.6067C70.724 92.5727 70.9735 92.4706 71.1777 92.3061C71.4329 92.0793 71.586 91.7787 71.637 91.4101H68.8639C68.6597 91.4101 68.4499 91.3988 68.24 91.3817C68.0302 91.3647 67.8204 91.3194 67.6162 91.257C67.4121 91.1946 67.2136 91.0925 67.0208 90.9621C66.828 90.8316 66.6578 90.6445 66.5104 90.412C66.1077 89.7825 65.9036 88.7787 65.9036 87.3893C65.9036 86.7712 65.9546 86.2211 66.0567 85.739C66.1588 85.257 66.3856 84.8316 66.7259 84.4574C66.913 84.2532 67.1058 84.0887 67.2986 83.981C67.4971 83.8676 67.6956 83.7825 67.9055 83.7315C68.1096 83.6804 68.3194 83.6407 68.5236 83.6294C68.7278 83.6124 68.9319 83.6067 69.1304 83.6067H71.6484C71.8752 83.6067 72.0964 83.6237 72.3119 83.6521C72.5274 83.6804 72.7315 83.7712 72.9187 83.9186C73.1172 84.0887 73.2419 84.2759 73.293 84.4857C73.344 84.6955 73.3724 84.8884 73.3724 85.0528V90.5311C73.3724 91.0301 73.3327 91.5008 73.2476 91.9318C73.1625 92.3628 72.9924 92.7371 72.7372 93.049C72.5614 93.2645 72.3516 93.4347 72.1021 93.5594C71.8582 93.6842 71.6087 93.7749 71.3648 93.8373C71.121 93.8997 70.8884 93.9451 70.6673 93.9621C70.4461 93.9791 70.2646 93.9904 70.1285 93.9904H66.4423V92.6577H66.448ZM71.6484 85.5405C71.6484 85.4328 71.637 85.342 71.6087 85.2627C71.586 85.1833 71.5236 85.1095 71.4272 85.0415C71.3478 84.9904 71.2741 84.9621 71.2004 84.9451C71.1266 84.9281 71.0529 84.9224 70.9735 84.9224H69.499C69.2155 84.9224 68.9546 84.9621 68.7164 85.0471C68.4782 85.1322 68.2911 85.2513 68.155 85.4101C68.0359 85.5462 67.9452 85.7163 67.8828 85.9205C67.8204 86.1246 67.7693 86.3231 67.741 86.533C67.7126 86.7371 67.6956 86.9356 67.69 87.1171C67.6843 87.2986 67.6843 87.4347 67.6843 87.5197C67.6843 87.8713 67.7013 88.1719 67.7297 88.4101C67.758 88.6483 67.7977 88.8524 67.8431 89.0112C67.8884 89.1757 67.9338 89.3061 67.9848 89.4025C68.0359 89.4989 68.0813 89.5727 68.1323 89.6237C68.3308 89.8505 68.5576 89.981 68.8242 90.0207C69.0907 90.0604 69.3516 90.0774 69.6068 90.0774H71.654V85.5405H71.6484Z" fill="white"/>
<path d="M74.552 81.0945H76.276V91.4045H74.552V81.0945Z" fill="white"/>
<path d="M82.259 83.6011C82.5935 83.6011 82.8998 83.6521 83.189 83.7655C83.4726 83.8733 83.7051 84.0207 83.8809 84.2079C84.0453 84.378 84.1871 84.6105 84.2949 84.9224C84.4026 85.2343 84.4593 85.6086 84.4593 86.051V90.1001C84.4593 90.2362 84.4423 90.4064 84.4083 90.5992C84.3743 90.792 84.2892 90.9621 84.1531 91.0982C84.017 91.2343 83.8468 91.3194 83.654 91.3591C83.4555 91.3931 83.2684 91.4102 83.0813 91.4102H79.3554C79.1399 91.4102 78.9073 91.3931 78.6578 91.3648C78.4083 91.3364 78.1701 91.223 77.9433 91.0245C77.7845 90.8884 77.6597 90.7296 77.569 90.5481C77.4782 90.3667 77.4045 90.1795 77.3648 89.981C77.3194 89.7825 77.2911 89.5954 77.2854 89.4083C77.2741 89.2211 77.2684 89.0567 77.2684 88.9092C77.2684 88.5633 77.3024 88.2287 77.3818 87.8941C77.4555 87.5595 77.637 87.2646 77.9319 87.0094C78.1758 86.7939 78.4253 86.6635 78.6748 86.6181C78.9244 86.5727 79.1512 86.55 79.361 86.55H82.7523V86.0056C82.7523 85.8865 82.741 85.7674 82.7183 85.637C82.6956 85.5122 82.6332 85.3875 82.5368 85.2684C82.4177 85.1209 82.2816 85.0302 82.1342 84.9905C81.9811 84.9508 81.8393 84.9338 81.6975 84.9338H77.8525V83.6067H82.259V83.6011ZM79.8544 87.8714C79.7977 87.8714 79.7013 87.8827 79.5652 87.9054C79.4348 87.9281 79.3157 88.0075 79.2193 88.1323C79.1909 88.172 79.1512 88.2514 79.1002 88.3705C79.0491 88.4895 79.0264 88.688 79.0264 88.9773C79.0264 89.0963 79.0378 89.2438 79.0661 89.4196C79.0888 89.5954 79.1569 89.7372 79.2646 89.8449C79.3213 89.9016 79.4064 89.9584 79.5085 90.0094C79.6106 90.0604 79.7183 90.0831 79.8261 90.0831H82.2306C82.2816 90.0831 82.344 90.0831 82.4121 90.0774C82.4858 90.0718 82.5538 90.0434 82.6106 89.998C82.6673 89.947 82.7013 89.896 82.7126 89.8449C82.724 89.7939 82.7297 89.7315 82.7297 89.6748V87.8771H79.8544V87.8714Z" fill="white"/>
<path d="M92.6937 81.0945V90.0378C92.6937 90.2079 92.671 90.3837 92.637 90.5708C92.5973 90.758 92.5406 90.9055 92.4612 91.0132C92.3251 91.2003 92.155 91.3138 91.9508 91.3535C91.7467 91.3932 91.5595 91.4102 91.3837 91.4102H88.3043C88.1058 91.4102 87.896 91.3932 87.6635 91.3591C87.431 91.3251 87.2041 91.2514 86.9773 91.1436C86.7504 91.0359 86.5349 90.8828 86.3365 90.6786C86.1323 90.4801 85.9622 90.2079 85.8147 89.862C85.7183 89.6351 85.6276 89.3289 85.5482 88.9433C85.4688 88.5576 85.4291 88.0359 85.4291 87.3894C85.4291 86.9754 85.4631 86.533 85.5312 86.0567C85.5992 85.5803 85.7693 85.1493 86.0302 84.7693C86.2174 84.4971 86.4329 84.276 86.671 84.1228C86.9092 83.964 87.1531 83.8506 87.3913 83.7769C87.6295 83.7032 87.862 83.6578 88.0831 83.6351C88.3043 83.6181 88.4915 83.6068 88.6503 83.6068H90.964V81.1002H92.6937V81.0945ZM88.9905 84.9225C88.7637 84.9225 88.5141 84.9622 88.2363 85.0415C87.964 85.1209 87.7315 85.3138 87.5444 85.6143C87.4536 85.7504 87.3743 85.9603 87.3062 86.2325C87.2381 86.5047 87.2041 86.9073 87.2041 87.4404C87.2041 88.0472 87.2325 88.4782 87.2835 88.7221C87.3346 88.9659 87.3799 89.1247 87.4083 89.1928C87.499 89.3913 87.6068 89.5444 87.7315 89.6635C87.8563 89.7826 87.9924 89.8676 88.1342 89.93C88.276 89.9867 88.4234 90.0264 88.5709 90.0491C88.7183 90.0661 88.8544 90.0775 88.9848 90.0775H90.3686C90.4083 90.0775 90.482 90.0718 90.5841 90.0605C90.6862 90.0491 90.7712 90.0151 90.8279 89.9584C90.896 89.9017 90.9357 89.8109 90.947 89.6862C90.9584 89.5614 90.964 89.4707 90.964 89.414V84.9225H88.9905Z" fill="white"/>
<path d="M96.6124 91.4048C96.414 91.4048 96.2098 91.3991 95.9943 91.3821C95.7788 91.3651 95.569 91.3254 95.3591 91.2574C95.155 91.1893 94.9508 91.0872 94.758 90.9568C94.5595 90.8264 94.3837 90.6449 94.2249 90.418C93.9697 90.0438 93.8109 89.6071 93.7542 89.108C93.6975 88.609 93.6635 88.0986 93.6635 87.5768C93.6635 87.2139 93.6691 86.8736 93.6862 86.5504C93.7032 86.2328 93.7372 85.9379 93.8053 85.6657C93.8676 85.3935 93.964 85.1496 94.0831 84.9228C94.2079 84.6959 94.378 84.4918 94.5935 84.3046C94.809 84.1175 95.0472 83.9757 95.3081 83.8793C95.569 83.7829 95.8298 83.7092 96.0964 83.6638C96.3629 83.6184 96.6181 83.5901 96.862 83.5844C97.1058 83.5731 97.3213 83.5674 97.5085 83.5674C97.9678 83.5674 98.4272 83.5957 98.8695 83.6468C99.3175 83.7035 99.7202 83.8396 100.083 84.0664C100.31 84.2139 100.491 84.3783 100.633 84.5655C100.775 84.7526 100.888 84.9568 100.974 85.178C101.059 85.3991 101.115 85.6317 101.144 85.8698C101.172 86.108 101.189 86.3519 101.189 86.6014C101.189 86.7999 101.172 87.0041 101.132 87.2139C101.093 87.4237 100.991 87.6165 100.82 87.781C100.701 87.9001 100.571 87.9795 100.429 88.0192C100.287 88.0589 100.134 88.0759 99.9811 88.0759H95.4442C95.4442 88.2403 95.4555 88.4332 95.4726 88.6487C95.4896 88.8642 95.5179 89.0343 95.5463 89.1477C95.603 89.3519 95.6881 89.5163 95.7958 89.6411C95.9036 89.7659 96.034 89.8566 96.1814 89.919C96.3289 89.9814 96.482 90.0267 96.6465 90.0438C96.8109 90.0608 96.9697 90.0721 97.1228 90.0721H100.945V91.3991H96.6124V91.4048ZM99.0283 86.7545C99.1928 86.7545 99.3005 86.7035 99.3459 86.6071C99.3913 86.5107 99.414 86.4029 99.414 86.2952C99.414 86.0513 99.3629 85.8358 99.2608 85.66C99.1588 85.4842 99.0397 85.3481 98.9149 85.246C98.6994 85.0816 98.4612 84.9795 98.2003 84.9455C97.9395 84.9114 97.6843 84.8944 97.4404 84.8944C97.3213 84.8944 97.1966 84.9001 97.0548 84.9001C96.9187 84.9058 96.7769 84.9228 96.6295 84.9511C96.482 84.9795 96.3346 85.0305 96.1928 85.1042C96.051 85.178 95.9206 85.2801 95.8015 85.4048C95.6257 85.6033 95.5236 85.8075 95.5009 86.0286C95.4782 86.2498 95.4612 86.488 95.4499 86.7432H99.0283V86.7545Z" fill="white"/>
<path d="M102.062 90.0835H106.452C106.537 90.0835 106.639 90.0721 106.747 90.0438C106.854 90.0211 106.951 89.9587 107.025 89.8623C107.104 89.7829 107.149 89.6979 107.155 89.6071C107.166 89.5164 107.172 89.437 107.172 89.3803C107.172 89.2725 107.161 89.1704 107.138 89.0684C107.115 88.972 107.053 88.8755 106.951 88.7905C106.922 88.7621 106.883 88.7338 106.832 88.7111C106.781 88.6884 106.707 88.6544 106.605 88.6147C106.503 88.575 106.367 88.5296 106.202 88.4842C106.038 88.4332 105.817 88.3708 105.539 88.2914L104.036 87.8774C103.622 87.7697 103.276 87.6393 102.992 87.4861C102.709 87.333 102.488 87.1515 102.329 86.936C102.17 86.7205 102.074 86.4937 102.028 86.2612C101.983 86.023 101.96 85.8075 101.96 85.6147C101.96 85.4162 101.983 85.2007 102.028 84.9682C102.074 84.73 102.17 84.5088 102.329 84.2877C102.448 84.1289 102.578 84.0041 102.726 83.9134C102.873 83.8226 103.026 83.7489 103.191 83.7092C103.355 83.6638 103.52 83.6355 103.69 83.6298C103.86 83.6185 104.03 83.6128 104.2 83.6128H108.607V84.9398H104.467C104.37 84.9398 104.268 84.9455 104.166 84.9568C104.064 84.9682 103.962 85.0135 103.866 85.0873C103.758 85.1667 103.696 85.2517 103.673 85.3425C103.656 85.4332 103.645 85.5353 103.645 85.643C103.645 85.7508 103.656 85.8529 103.684 85.9549C103.707 86.0514 103.781 86.1534 103.9 86.2498C103.956 86.3009 104.03 86.3406 104.121 86.3803C104.212 86.42 104.302 86.454 104.393 86.4937C104.49 86.5277 104.58 86.5618 104.665 86.5901C104.756 86.6185 104.824 86.6411 104.87 86.6468L106.548 87.1175C107.019 87.2536 107.41 87.3841 107.728 87.5088C108.04 87.6336 108.295 87.798 108.493 88.0022C108.692 88.2177 108.817 88.4559 108.879 88.7168C108.941 88.9776 108.97 89.2158 108.97 89.4313C108.97 89.902 108.896 90.2706 108.754 90.5315C108.612 90.7924 108.465 90.9795 108.318 91.0986C108.119 91.2461 107.909 91.3368 107.682 91.3708C107.456 91.4049 107.251 91.4219 107.064 91.4219H102.068V90.0835H102.062Z" fill="white"/>
<path d="M109.928 81.0945H111.652V83.6011H113.994C114.437 83.6011 114.839 83.6351 115.208 83.7088C115.577 83.7826 115.905 83.93 116.189 84.1569C116.405 84.3327 116.597 84.5935 116.773 84.9395C116.943 85.2854 117.028 85.7278 117.028 86.2665V91.4102H115.304V86.7259C115.304 86.6465 115.304 86.5501 115.299 86.4366C115.293 86.3232 115.276 86.2041 115.248 86.085C115.219 85.9603 115.18 85.8412 115.129 85.7164C115.077 85.5916 115.009 85.4839 114.924 85.3875C114.726 85.172 114.51 85.0416 114.278 84.9962C114.04 84.9508 113.841 84.9281 113.677 84.9281H111.658V91.4102H109.934V81.0945H109.928Z" fill="white"/>
</svg>
