<svg width="24" height="24" viewBox="0 0 24 24" fill="none" xmlns="http://www.w3.org/2000/svg">
<path d="M12 0C18.6169 0 24 5.38309 24 12C24 18.6169 18.6169 24 12 24C5.38309 24 0 18.6169 0 12C0 5.38309 5.38309 0 12 0ZM18.4353 9.57327C19.0107 9.15764 19.5104 8.63945 19.9053 8.04927C19.1024 8.41418 18.2138 8.51291 18.2138 8.51291C18.2138 8.51291 19.2513 7.91236 19.5082 6.88418C18.9398 7.22127 18.3093 7.46673 17.6384 7.59873C17.1011 7.02655 16.3364 6.66873 15.4893 6.66873C13.8633 6.66873 12.5449 7.98764 12.5449 9.61309C12.5449 9.84382 12.6213 10.2835 12.6213 10.2835C12.6213 10.2835 9.06818 10.3047 6.55255 7.20655C6.55255 7.20655 6.16527 7.72418 6.15436 8.68746C6.13582 10.32 7.46346 11.1376 7.46346 11.1376C7.46346 11.1376 6.79582 11.1556 6.12982 10.7695C6.18927 13.2982 8.49164 13.6931 8.49164 13.6931C8.49164 13.6931 7.74818 13.836 7.16182 13.7438C7.53655 14.9133 8.62418 15.7653 9.912 15.7887C8.90455 16.5785 7.63527 17.0493 6.25527 17.0493C6.018 17.0493 5.78345 17.0356 5.55273 17.0078C6.23618 17.748 8.40327 18.3305 10.0664 18.3305C15.4822 18.3305 18.4429 13.8442 18.4429 9.95345C18.4435 9.82636 18.4407 9.69982 18.4353 9.57327Z" fill="white"/>
</svg>
