<svg width="24" height="24" viewBox="0 0 24 24" fill="none" xmlns="http://www.w3.org/2000/svg">
<path fill-rule="evenodd" clip-rule="evenodd" d="M12 0C18.6275 0 24.0001 5.37257 24.0001 12C24.0001 18.6275 18.6275 24.0001 12 24.0001C5.37257 24.0001 0 18.6275 0 12C0 5.37257 5.37257 0 12 0ZM18.0621 9.52539C18.0621 9.52539 17.9413 8.67227 17.5694 8.29765C17.0981 7.80495 16.5705 7.80178 16.3293 7.77327C14.5987 7.6472 11.9994 7.6472 11.9994 7.6472H11.9949C11.9949 7.6472 9.39673 7.6472 7.66513 7.77327C7.42299 7.80272 6.8961 7.80474 6.42507 8.29765C6.05297 8.67227 5.93468 9.52539 5.93468 9.52539C5.93468 9.52539 5.81149 10.5265 5.81149 11.5297V12.4678C5.81149 13.469 5.93453 14.4721 5.93453 14.4721C5.93453 14.4721 6.05535 15.3252 6.42493 15.7005C6.89595 16.1932 7.51494 16.1772 7.79127 16.2297C8.78207 16.3243 12.0002 16.3528 12.0002 16.3528C12.0002 16.3528 14.6018 16.3482 16.3324 16.2244C16.5745 16.1958 17.1012 16.1929 17.5724 15.7C17.9445 15.3254 18.0651 14.4713 18.0651 14.4713C18.0651 14.4713 18.1883 13.4702 18.1883 12.467V11.529C18.1858 10.5279 18.0627 9.52475 18.0627 9.52475L18.062 9.52539L18.0619 9.52532L18.0621 9.52539ZM10.7174 13.6059V10.1275L14.0608 11.8725L10.7174 13.6059Z" fill="white"/>
</svg>
